<svg width="1200" height="300" viewBox="0 0 1200 300" fill="none" xmlns="http://www.w3.org/2000/svg" role="img" aria-labelledby="title desc">
  <title id="title">Aurane logo bar</title>
  <desc id="desc">A release-ready logo bar for Aurane, a machine learning DSL that compiles to PyTorch.</desc>
  <defs>
    <linearGradient id="bg" x1="0" y1="0" x2="1200" y2="300" gradientUnits="userSpaceOnUse">
      <stop stop-color="#08111F"/>
      <stop offset="0.43" stop-color="#102A43"/>
      <stop offset="1" stop-color="#0B3B3C"/>
    </linearGradient>
    <linearGradient id="mark" x1="134" y1="56" x2="296" y2="232" gradientUnits="userSpaceOnUse">
      <stop stop-color="#7DD3FC"/>
      <stop offset="0.52" stop-color="#34D399"/>
      <stop offset="1" stop-color="#FDE68A"/>
    </linearGradient>
    <linearGradient id="line" x1="390" y1="201" x2="1016" y2="201" gradientUnits="userSpaceOnUse">
      <stop stop-color="#7DD3FC"/>
      <stop offset="0.5" stop-color="#34D399"/>
      <stop offset="1" stop-color="#FDE68A"/>
    </linearGradient>
    <filter id="softShadow" x="-20%" y="-20%" width="140%" height="140%" color-interpolation-filters="sRGB">
      <feDropShadow dx="0" dy="18" stdDeviation="18" flood-color="#020617" flood-opacity="0.35"/>
    </filter>
  </defs>
  <rect width="1200" height="300" rx="38" fill="url(#bg)"/>
  <path d="M0 242C166 186 311 196 438 228C609 271 751 258 889 202C998 158 1100 155 1200 184V300H0V242Z" fill="#FFFFFF" fill-opacity="0.06"/>
  <g filter="url(#softShadow)">
    <path d="M212 52L319 239H271L247 195H152L129 239H81L188 52H212ZM174 154H225L200 108L174 154Z" fill="url(#mark)"/>
    <path d="M205 72L294 226H270L247 184H153L131 226H107L196 72H205ZM165 163H235L200 100L165 163Z" stroke="#E0F2FE" stroke-opacity="0.74" stroke-width="6"/>
    <circle cx="200" cy="154" r="12" fill="#08111F" stroke="#D1FAE5" stroke-width="5"/>
    <path d="M200 154L251 99" stroke="#D1FAE5" stroke-width="6" stroke-linecap="round"/>
    <path d="M200 154L257 196" stroke="#D1FAE5" stroke-width="6" stroke-linecap="round"/>
  </g>
  <text x="389" y="132" fill="#F8FAFC" font-family="Inter, ui-sans-serif, system-ui, -apple-system, BlinkMacSystemFont, Segoe UI, sans-serif" font-size="76" font-weight="800" letter-spacing="0">Aurane</text>
  <text x="393" y="177" fill="#C7D2FE" font-family="Inter, ui-sans-serif, system-ui, -apple-system, BlinkMacSystemFont, Segoe UI, sans-serif" font-size="25" font-weight="600" letter-spacing="0">A modern ML DSL that lowers clean architecture into idiomatic PyTorch.</text>
  <rect x="392" y="202" width="624" height="3" rx="1.5" fill="url(#line)"/>
  <g fill="#E2E8F0" font-family="Inter, ui-sans-serif, system-ui, -apple-system, BlinkMacSystemFont, Segoe UI, sans-serif" font-size="18" font-weight="700">
    <text x="393" y="238">Parse</text>
    <text x="492" y="238">Analyze</text>
    <text x="616" y="238">Optimize</text>
    <text x="748" y="238">Lower IR</text>
    <text x="873" y="238">Generate</text>
  </g>
  <g stroke="#94A3B8" stroke-width="2" stroke-linecap="round" opacity="0.75">
    <path d="M455 232H477"/>
    <path d="M579 232H601"/>
    <path d="M719 232H741"/>
    <path d="M845 232H867"/>
  </g>
</svg>
